HIERARCHY
ROOT Hips
{
  OFFSET 0 0 0
  CHANNELS 6 Xposition Yposition Zposition Zrotation Xrotation Yrotation
  JOINT Spine
  {
    OFFSET 0 10.1816 0.1315
    CHANNELS 3 Zrotation Xrotation Yrotation
    JOINT Spine1
    {
      OFFSET 0 10.0835 -1.0008
      CHANNELS 3 Zrotation Xrotation Yrotation
      JOINT Spine2
      {
        OFFSET 0 9.1 -1.3734
        CHANNELS 3 Zrotation Xrotation Yrotation
        JOINT Neck
        {
          OFFSET 0 16.6717 -2.5162
          CHANNELS 3 Zrotation Xrotation Yrotation
          JOINT Head
          {
            OFFSET 0 9.6179 1.685
            CHANNELS 3 Zrotation Xrotation Yrotation
            End Site
            {
              OFFSET 0 0 0
            }
          }
        }
        JOINT LeftShoulder
        {
          OFFSET 4.5704 10.946 -2.628
          CHANNELS 3 Zrotation Xrotation Yrotation
          JOINT LeftArm
          {
            OFFSET 10.5924 -0.5246 -2.2321
            CHANNELS 3 Zrotation Xrotation Yrotation
            JOINT LeftForeArm
            {
              OFFSET 27.8415 -0.0001 0
              CHANNELS 3 Zrotation Xrotation Yrotation
              JOINT LeftHand
              {
                OFFSET 28.3288 0 0
                CHANNELS 3 Zrotation Xrotation Yrotation
                End Site
                {
                  OFFSET 0 0 0
                }
              }
            }
          }
        }
        JOINT RightShoulder
        {
          OFFSET -4.57 10.9462 -2.628
          CHANNELS 3 Zrotation Xrotation Yrotation
          JOINT RightArm
          {
            OFFSET -10.5928 -0.5248 -2.2321
            CHANNELS 3 Zrotation Xrotation Yrotation
            JOINT RightForeArm
            {
              OFFSET -27.8415 0 0
              CHANNELS 3 Zrotation Xrotation Yrotation
              JOINT RightHand
              {
                OFFSET -28.3288 0 0.0001
                CHANNELS 3 Zrotation Xrotation Yrotation
                End Site
                {
                  OFFSET 0 0 0
                }
              }
            }
          }
        }
      }
    }
  }
  JOINT LeftUpLeg
  {
    OFFSET 8.2078 -6.7517 -1.5996
    CHANNELS 3 Zrotation Xrotation Yrotation
    JOINT LeftLeg
    {
      OFFSET 0 -44.3705 0.2846
      CHANNELS 3 Zrotation Xrotation Yrotation
      JOINT LeftFoot
      {
        OFFSET 0 -44.4279 -2.9822
        CHANNELS 3 Zrotation Xrotation Yrotation
        JOINT LeftToeBase
        {
          OFFSET 0 -8.7287 10.7106
          CHANNELS 3 Zrotation Xrotation Yrotation
          End Site
          {
            OFFSET 0 0 0
          }
        }
      }
    }
  }
  JOINT RightUpLeg
  {
    OFFSET -8.2078 -6.7517 -1.5996
    CHANNELS 3 Zrotation Xrotation Yrotation
    JOINT RightLeg
    {
      OFFSET 0 -44.3705 0.2862
      CHANNELS 3 Zrotation Xrotation Yrotation
      JOINT RightFoot
      {
        OFFSET 0 -44.4277 -2.9838
        CHANNELS 3 Zrotation Xrotation Yrotation
        JOINT RightToeBase
        {
          OFFSET 0 -8.7287 10.7106
          CHANNELS 3 Zrotation Xrotation Yrotation
          End Site
          {
            OFFSET 0 0 0
          }
        }
      }
    }
  }
}
MOTION
Frames:	7
Frame Time:	0.0333333
1.92143 103.777 157.916 -1.46651 3.05874 2.80907 1.53068 -0.387844 0.055948 0.715254 -0.368172 0.0384127 0.71537 -0.36842 0.040315 -0.583706 -0.899473 -0.48048 -3.32455 -3.77989 -2.51984 -10.799 4.86338 -13.2591 -59.8631 36.6687 -5.42428 -0.000201977 -4.40087e-06 -9.22448 12.9678 -34.0003 1.156 10.675 0.774192 -0.378297 60.7377 39.1263 -3.61113 1.52728e-05 -4.37141e-07 21.9667 -15.9533 -22.17 -0.045705 -1.71513 -10.6186 2.53102 3.3588 17.3683 2.25714 -2.34337 -4.98874 0.341169 0.437848 -4.80221 0.0347405 -1.15783 -14.4155 -18.0494 -6.27888 22.5208 10.203 -7.30618 -4.0785 10.0136 9.50481e-07 -11.0627 -2.19805e-06 
2.01048 103.793 158.353 -1.58892 3.16002 2.80646 1.55926 -0.325517 0.143247 0.718761 -0.30693 0.109604 0.718562 -0.306858 0.110793 -0.478806 -0.895035 -0.528829 -3.26304 -3.64702 -2.64403 -10.7735 4.89552 -13.4059 -59.6834 37.0051 -5.54915 -0.000205926 -1.84841e-06 -9.21856 12.7338 -34.3577 1.47922 10.7013 0.78627 -0.345464 60.8044 39.1658 -3.57863 6.59199e-07 -7.10849e-06 21.5456 -16.6957 -21.3387 -0.132168 -1.60218 -10.3741 2.60201 3.1584 17.1812 3.21183 -2.30751 -5.15407 0.335664 0.525192 -4.75716 0.0407929 -1.06924 -14.2154 -18.1295 -6.29235 22.3896 10.1554 -7.32254 -4.11321 9.97694 3.59317e-07 -11.205 8.0353e-07 
2.22518 103.809 158.816 -1.60688 3.10752 2.84813 1.51349 -0.242113 0.230707 0.699784 -0.234336 0.182216 0.69943 -0.234128 0.183232 -0.37144 -0.852184 -0.555043 -3.23869 -3.68129 -2.647 -10.7494 4.91972 -13.5318 -59.5247 36.9811 -5.59342 -0.000197562 1.78633e-06 -9.36044 13.5796 -34.4704 2.53035 10.7484 0.812226 -0.270803 60.8879 39.1741 -3.54765 1.36762e-05 1.35883e-06 21.2333 -17.4397 -20.3748 -0.258675 -1.59062 -9.79515 2.50009 3.07432 16.8375 1.99662 -2.17907 -5.44127 0.33044 0.433023 -4.7092 0.0336717 -1.13305 -13.69 -18.2665 -6.27189 22.0747 10.1464 -7.19466 -4.36409 9.79622 -2.98792e-07 -11.0718 -1.99573e-06 
2.30439 103.814 159.26 -1.6166 3.0007 2.44248 1.42032 -0.202904 0.299521 0.670941 -0.203983 0.239132 0.670527 -0.203738 0.240239 -0.26551 -0.809936 -0.56991 -3.24138 -3.76662 -2.58942 -10.7293 4.94433 -13.6487 -59.4126 36.7893 -5.55647 -0.000201885 6.93213e-06 -9.57324 15.2509 -34.7785 3.96269 10.807 0.845797 -0.174374 60.9317 39.1664 -3.54602 1.99628e-05 8.36325e-06 21.125 -17.9122 -19.5706 -0.328648 -1.09311 -9.30754 3.77026 2.38879 16.7362 1.42419 -1.72587 -5.71383 0.303037 0.383589 -4.78192 0.0305057 -0.81258 -13.1435 -17.8051 -6.58641 21.6263 10.194 -6.94448 -4.67175 9.58502 -5.31792e-06 -10.8238 2.68794e-06 
2.38194 103.804 159.603 -1.6102 2.84042 2.21218 1.32324 -0.282128 0.314806 0.651666 -0.27634 0.250602 0.651263 -0.276123 0.251772 -0.164848 -0.788757 -0.583434 -3.2559 -3.8334 -2.52944 -10.7114 4.96045 -13.7393 -59.4086 36.6299 -5.45994 -0.000204018 -1.31009e-05 -9.76848 17.1241 -35.3813 5.37551 10.8624 0.878985 -0.0792643 60.8914 39.1442 -3.61083 2.71898e-06 4.73779e-07 21.2528 -18.1313 -19.2672 -0.320151 -0.597705 -8.84675 5.08015 1.59067 16.6765 1.25768 -1.18502 -5.94798 0.274168 0.41057 -4.79411 0.0326216 -0.562529 -12.5461 -17.566 -6.88773 21.1307 10.2614 -6.56845 -5.01422 9.33104 -2.19884e-06 -10.4452 -1.85875e-06 
2.6532 103.718 159.824 -1.57809 3.67099 2.47772 1.23861 -0.485595 0.25682 0.648357 -0.451348 0.201627 0.648048 -0.451222 0.202592 -0.0630679 -0.774669 -0.602503 -3.27417 -3.86362 -2.49476 -10.689 4.93319 -13.7399 -59.5598 36.6103 -5.3339 -0.000208378 -5.83488e-06 -9.88495 18.5919 -35.9597 6.42953 10.9043 0.905729 -0.00226876 60.7866 39.0993 -3.75231 1.06617e-05 -4.09916e-06 21.5115 -18.3138 -19.5633 -0.309861 -0.845345 -9.54875 4.53767 1.28595 16.5767 2.20079 -0.792223 -6.14069 0.281574 0.592246 -4.543 0.0433952 -0.914737 -13.1455 -17.781 -6.65782 21.0488 10.3635 -6.40343 -5.45515 8.82286 -5.8723e-06 -9.99143 2.12615e-06 
3.00166 103.606 160.038 -1.51041 4.82464 2.93165 1.15747 -0.728268 0.152648 0.644103 -0.64824 0.11559 0.643936 -0.648228 0.115985 0.0553045 -0.725188 -0.632006 -3.2868 -3.85454 -2.49017 -10.6557 4.83524 -13.6031 -59.8231 36.7206 -5.21531 -0.000204272 4.53243e-06 -9.90878 19.4006 -36.1116 6.96848 10.9316 0.921208 0.0399836 60.7214 39.0152 -3.95992 2.47007e-06 1.11693e-05 21.6949 -18.5674 -20.2341 -0.364904 -1.4596 -10.6216 3.20416 1.32432 16.4997 3.1958 -0.569639 -6.29487 0.29479 0.791905 -4.28029 0.0528202 -1.47216 -14.1815 -17.9146 -6.24624 21.2584 10.4994 -6.54255 -5.97097 8.00505 -3.01138e-06 -9.56817 5.62098e-07 
